<svg width="1440" height="712" viewBox="0 0 1440 712" fill="none" xmlns="http://www.w3.org/2000/svg">
<rect width="1440" height="712" fill="#1E1E1E"/>
<rect width="1440" height="712" fill="#FFFF00"/>
<path d="M1111 285.152L1241.93 206L1375.41 426.792L1244.47 505.944L1111 285.152Z" fill="#D9D9D9"/>
<path fill-rule="evenodd" clip-rule="evenodd" d="M1241.59 207.401L1112.4 285.497L1244.82 504.544L1374.01 426.447L1241.59 207.401ZM1111 285.152L1244.47 505.944L1375.41 426.792L1241.93 206L1111 285.152Z" fill="black"/>
<path d="M1185.77 283.19L1205.45 271.292L1239.08 326.917L1219.39 338.816L1185.77 283.19Z" fill="#FFFF00"/>
<path fill-rule="evenodd" clip-rule="evenodd" d="M1205.11 272.692L1187.17 283.536L1219.74 337.416L1237.68 326.572L1205.11 272.692ZM1185.77 283.19L1219.39 338.816L1239.08 326.917L1205.45 271.292L1185.77 283.19Z" fill="black"/>
<path d="M260.911 92.2755C262.223 90.5367 264.658 89.657 268.114 89.6922C271.558 89.7273 275.907 90.6734 280.878 92.4521C290.814 96.0075 303.123 102.849 315.437 112.142C327.751 121.435 337.705 131.397 343.848 139.977C346.922 144.27 349.024 148.192 350.002 151.495C350.984 154.809 350.806 157.392 349.493 159.131C348.181 160.87 345.746 161.749 342.29 161.714C338.846 161.679 334.497 160.733 329.526 158.954C319.59 155.399 307.281 148.558 294.967 139.264C282.653 129.971 272.699 120.009 266.556 111.429C263.482 107.136 261.38 103.214 260.402 99.9116C259.42 96.5974 259.598 94.0143 260.911 92.2755Z" fill="#D9D9D9"/>
<path d="M260.911 92.2755C262.223 90.5367 264.658 89.657 268.114 89.6922C271.558 89.7273 275.907 90.6734 280.878 92.4521C290.814 96.0075 303.123 102.849 315.437 112.142C327.751 121.435 337.705 131.397 343.848 139.977C346.922 144.27 349.024 148.192 350.002 151.495C350.984 154.809 350.806 157.392 349.493 159.131C348.181 160.87 345.746 161.749 342.29 161.714C338.846 161.679 334.497 160.733 329.526 158.954C319.59 155.399 307.281 148.558 294.967 139.264C282.653 129.971 272.699 120.009 266.556 111.429C263.482 107.136 261.38 103.214 260.402 99.9116C259.42 96.5974 259.598 94.0143 260.911 92.2755Z" stroke="black" stroke-width="1.02"/>
<path d="M260.911 92.2755C262.223 90.5367 264.658 89.657 268.114 89.6922C271.558 89.7273 275.907 90.6734 280.878 92.4521C290.814 96.0075 303.123 102.849 315.437 112.142C327.751 121.435 337.705 131.397 343.848 139.977C346.922 144.27 349.024 148.192 350.002 151.495C350.984 154.809 350.806 157.392 349.493 159.131C348.181 160.87 345.746 161.749 342.29 161.714C338.846 161.679 334.497 160.733 329.526 158.954C319.59 155.399 307.281 148.558 294.967 139.264C282.653 129.971 272.699 120.009 266.556 111.429C263.482 107.136 261.38 103.214 260.402 99.9116C259.42 96.5974 259.598 94.0143 260.911 92.2755Z" stroke="black" stroke-opacity="0.2" stroke-width="1.02"/>
<path d="M260.911 92.2755C262.223 90.5367 264.658 89.657 268.114 89.6922C271.558 89.7273 275.907 90.6734 280.878 92.4521C290.814 96.0075 303.123 102.849 315.437 112.142C327.751 121.435 337.705 131.397 343.848 139.977C346.922 144.27 349.024 148.192 350.002 151.495C350.984 154.809 350.806 157.392 349.493 159.131C348.181 160.87 345.746 161.749 342.29 161.714C338.846 161.679 334.497 160.733 329.526 158.954C319.59 155.399 307.281 148.558 294.967 139.264C282.653 129.971 272.699 120.009 266.556 111.429C263.482 107.136 261.38 103.214 260.402 99.9116C259.42 96.5974 259.598 94.0143 260.911 92.2755Z" stroke="black" stroke-opacity="0.2" stroke-width="1.02"/>
<path d="M260.911 92.2755C262.223 90.5367 264.658 89.657 268.114 89.6922C271.558 89.7273 275.907 90.6734 280.878 92.4521C290.814 96.0075 303.123 102.849 315.437 112.142C327.751 121.435 337.705 131.397 343.848 139.977C346.922 144.27 349.024 148.192 350.002 151.495C350.984 154.809 350.806 157.392 349.493 159.131C348.181 160.87 345.746 161.749 342.29 161.714C338.846 161.679 334.497 160.733 329.526 158.954C319.59 155.399 307.281 148.558 294.967 139.264C282.653 129.971 272.699 120.009 266.556 111.429C263.482 107.136 261.38 103.214 260.402 99.9116C259.42 96.5974 259.598 94.0143 260.911 92.2755Z" stroke="black" stroke-opacity="0.2" stroke-width="1.02"/>
<path d="M264.559 94.4437C265.496 93.2027 267.459 92.6548 270.48 92.9605C273.465 93.2627 277.309 94.3849 281.762 96.242C290.659 99.953 301.874 106.552 313.287 115.165C324.699 123.779 334.12 132.754 340.129 140.293C343.136 144.066 345.269 147.455 346.378 150.243C347.5 153.063 347.512 155.102 346.575 156.343C345.639 157.584 343.675 158.132 340.655 157.826C337.67 157.524 333.825 156.402 329.373 154.545C320.476 150.834 309.261 144.235 297.848 135.621C286.435 127.008 277.014 118.032 271.006 110.494C267.999 106.721 265.865 103.332 264.756 100.544C263.634 97.7232 263.623 95.6846 264.559 94.4437Z" fill="#FFFF00"/>
<path d="M264.559 94.4437C265.496 93.2027 267.459 92.6548 270.48 92.9605C273.465 93.2627 277.309 94.3849 281.762 96.242C290.659 99.953 301.874 106.552 313.287 115.165C324.699 123.779 334.12 132.754 340.129 140.293C343.136 144.066 345.269 147.455 346.378 150.243C347.5 153.063 347.512 155.102 346.575 156.343C345.639 157.584 343.675 158.132 340.655 157.826C337.67 157.524 333.825 156.402 329.373 154.545C320.476 150.834 309.261 144.235 297.848 135.621C286.435 127.008 277.014 118.032 271.006 110.494C267.999 106.721 265.865 103.332 264.756 100.544C263.634 97.7232 263.623 95.6846 264.559 94.4437Z" stroke="black" stroke-width="1.02"/>
<path d="M264.559 94.4437C265.496 93.2027 267.459 92.6548 270.48 92.9605C273.465 93.2627 277.309 94.3849 281.762 96.242C290.659 99.953 301.874 106.552 313.287 115.165C324.699 123.779 334.12 132.754 340.129 140.293C343.136 144.066 345.269 147.455 346.378 150.243C347.5 153.063 347.512 155.102 346.575 156.343C345.639 157.584 343.675 158.132 340.655 157.826C337.67 157.524 333.825 156.402 329.373 154.545C320.476 150.834 309.261 144.235 297.848 135.621C286.435 127.008 277.014 118.032 271.006 110.494C267.999 106.721 265.865 103.332 264.756 100.544C263.634 97.7232 263.623 95.6846 264.559 94.4437Z" stroke="black" stroke-opacity="0.2" stroke-width="1.02"/>
<path d="M264.559 94.4437C265.496 93.2027 267.459 92.6548 270.48 92.9605C273.465 93.2627 277.309 94.3849 281.762 96.242C290.659 99.953 301.874 106.552 313.287 115.165C324.699 123.779 334.12 132.754 340.129 140.293C343.136 144.066 345.269 147.455 346.378 150.243C347.5 153.063 347.512 155.102 346.575 156.343C345.639 157.584 343.675 158.132 340.655 157.826C337.67 157.524 333.825 156.402 329.373 154.545C320.476 150.834 309.261 144.235 297.848 135.621C286.435 127.008 277.014 118.032 271.006 110.494C267.999 106.721 265.865 103.332 264.756 100.544C263.634 97.7232 263.623 95.6846 264.559 94.4437Z" stroke="black" stroke-opacity="0.2" stroke-width="1.02"/>
<path d="M264.559 94.4437C265.496 93.2027 267.459 92.6548 270.48 92.9605C273.465 93.2627 277.309 94.3849 281.762 96.242C290.659 99.953 301.874 106.552 313.287 115.165C324.699 123.779 334.12 132.754 340.129 140.293C343.136 144.066 345.269 147.455 346.378 150.243C347.5 153.063 347.512 155.102 346.575 156.343C345.639 157.584 343.675 158.132 340.655 157.826C337.67 157.524 333.825 156.402 329.373 154.545C320.476 150.834 309.261 144.235 297.848 135.621C286.435 127.008 277.014 118.032 271.006 110.494C267.999 106.721 265.865 103.332 264.756 100.544C263.634 97.7232 263.623 95.6846 264.559 94.4437Z" stroke="black" stroke-opacity="0.2" stroke-width="1.02"/>
<path d="M338.499 161.434L341.766 168.132L342.982 170.563L345.414 177.247L332.039 190.008L328.999 199.123L332.039 210.061L339.334 216.745H350.885L363.652 204.592L390.931 232.898H400.05L402.482 236.544V240.797H404.914L406.999 247.934L412.817 250.434L415.675 256.072L417.499 260.934L422.499 262.434L427.499 266.927L431.499 269.965L434.499 276.934L441.999 281.434L443.499 278.434L444.499 273.934L387.363 190.008L401.345 179.07L408.641 170.563L404.993 157.194L396.482 148.687L389.186 149.903L381.891 152.333L370.34 160.233L361.828 154.764L355.141 149.903L352.709 146.864L352.101 146.257L349.061 144.434H345.414L341.766 145.041L339.334 146.257L336.902 148.08L335.686 149.903L335.078 152.941V156.587L336.499 157.194L339.999 157.434L339.334 154.764L339.942 151.726L344.198 148.687H349.061L352.101 152.333L350.885 159.017L346.63 161.448L342.982 161.934L338.499 161.434Z" fill="#FFE900" stroke="black" stroke-width="1.02"/>
<path d="M240.43 142.92L215.027 171.503L220.826 175.056L225.236 167.929L229.882 161.894L233.062 157.548L238.553 152.247L245.496 147.318L251.458 144.202L256.811 141.446L262.151 140.752L266.758 140.902L269.887 144.802L277.709 154.553L281.296 162.7L284.87 172.909L283.974 180.422L279.898 192.281L283.884 194.853L289.302 181.79L290.472 169.185L286.165 159.82L296.335 162.43L306.505 165.04L315.484 164.248L322.539 160.896L329.606 155.483L325.175 146.603L319.526 138.442L312.039 133.423L304.787 129.498L296.554 127.385L287.339 127.084L280.297 128.374L271.679 129.776L267.693 127.204L263.608 120.994L254.818 110.995L244.425 105.23L230.118 104.656L217.612 107.125L203.987 113.952L206.233 123.304L215.135 134.88L227.341 141.626L240.43 142.92Z" fill="#64DC18" stroke="black" stroke-width="1.02"/>
<path d="M204.472 114.076L214.642 116.686L222.875 118.799L233.53 121.534L240.794 123.398L254.938 130.642L259.532 132.853L264.86 134.22L267.281 134.842L276.247 136.11L284.48 138.223L292.714 140.336L302.151 143.791L310.371 147.965L318.716 151.656L329.122 155.359" stroke="black" stroke-width="1.02"/>
<circle cx="199.782" cy="204.757" r="36.49" transform="rotate(14.394 199.782 204.757)" fill="#F2170D" stroke="black" stroke-width="1.02"/>
<circle cx="262.965" cy="224.07" r="36.49" transform="rotate(14.394 262.965 224.07)" fill="#F2170D" stroke="black" stroke-width="1.02"/>
<circle cx="284.737" cy="213.655" r="7.99" transform="rotate(14.394 284.737 213.655)" fill="white" stroke="black" stroke-width="1.02"/>
<circle cx="219.866" cy="192.877" r="7.99" transform="rotate(14.394 219.866 192.877)" fill="white" stroke="black" stroke-width="1.02"/>
<path d="M229.655 120.54L207.922 124.77" stroke="black" stroke-width="1.02"/>
<path d="M229.531 121.024L219.798 106.653M235.21 104.93L242.123 124.255L215.619 135.004M250.348 108.299L253.609 129.784L233.885 142.273M256.202 141.806L264.375 134.096L263.608 120.994" stroke="black" stroke-width="1.02"/>
<path d="M282.483 127.903L274.31 135.613L276.144 152.603" stroke="black" stroke-width="1.02"/>
<path d="M296.069 127.26L285.933 138.596L290.523 160.939" stroke="black" stroke-width="1.02"/>
<path d="M286.164 159.82L278.068 155.161" stroke="black" stroke-width="1.02"/>
<path d="M240.43 142.92L256.202 141.806" stroke="black" stroke-width="1.02"/>
<path d="M310.71 132.566L296.948 141.939L302.631 164.046" stroke="black" stroke-width="1.02"/>
<path d="M309.043 147.108L322.046 142.703" stroke="black" stroke-width="1.02"/>
<path d="M309.043 147.108L313.423 164.235" stroke="black" stroke-width="1.02"/>
<path d="M441.499 274.434L380.499 194.434L375.499 197.934L442.999 278.934L441.499 274.434Z" fill="#F8F09A" stroke="black" stroke-width="1.02"/>
<path d="M342.999 210.934L349.499 210.434L364.499 198.434L375.499 190.434L387.499 182.934L397.499 176.434L402.499 170.934L399.999 160.434L393.499 153.434L384.999 157.434L372.999 167.434L369.999 165.434L358.999 157.434L346.499 167.434L352.499 181.434L338.499 192.934L335.499 198.434L336.499 205.434L342.999 210.934Z" fill="#F8F09A" stroke="black" stroke-width="1.02"/>
<path d="M362.225 184.014C361.648 183.404 360.984 183.083 360.232 183.052C359.472 183.008 358.781 183.267 358.162 183.831L357.331 182.921C357.868 182.436 358.488 182.119 359.188 181.97C359.902 181.811 360.614 181.842 361.323 182.061C362.023 182.267 362.616 182.639 363.101 183.177L362.225 184.014ZM368.951 189.464L368.042 190.296L362.225 184.014L363.101 183.177L368.951 189.464ZM364.855 181.916C364.499 181.285 364.335 180.604 364.363 179.875C364.381 179.133 364.572 178.454 364.937 177.837C365.314 177.211 365.819 176.72 366.45 176.365L367.048 177.443C366.316 177.85 365.85 178.422 365.65 179.157C365.44 179.879 365.532 180.611 365.927 181.352L364.855 181.916ZM365.927 181.352L370.029 188.867L368.951 189.464L364.855 181.916L365.927 181.352ZM367.759 180.035C367.182 179.425 366.518 179.104 365.767 179.073C365.006 179.029 364.316 179.289 363.696 179.852L362.865 178.942C363.403 178.457 364.022 178.14 364.723 177.991C365.436 177.833 366.148 177.863 366.857 178.082C367.557 178.288 368.15 178.66 368.635 179.198L367.759 180.035ZM374.486 185.485L373.576 186.317L367.759 180.035L368.635 179.198L374.486 185.485ZM370.389 177.937C370.033 177.306 369.87 176.626 369.897 175.896C369.915 175.154 370.107 174.475 370.471 173.858C370.849 173.232 371.353 172.741 371.984 172.386L372.582 173.464C371.85 173.871 371.384 174.443 371.184 175.178C370.974 175.901 371.066 176.632 371.461 177.373L370.389 177.937ZM371.461 177.373L375.563 184.888L374.486 185.485L370.389 177.937L371.461 177.373Z" fill="black"/>
<rect x="165.422" y="528.268" width="89" height="55" transform="rotate(-22.1057 165.422 528.268)" fill="#7FD3FF"/>
<rect x="165.422" y="528.268" width="89" height="55" transform="rotate(-22.1057 165.422 528.268)" stroke="black"/>
<path d="M193.515 557.332L192.286 557.831L187.101 545.064L188.329 544.565L193.515 557.332ZM187.101 545.064C186.801 544.326 186.708 543.568 186.823 542.792C186.954 542.009 187.258 541.305 187.734 540.682C188.21 540.058 188.818 539.596 189.557 539.296L190.056 540.525C189.221 540.864 188.641 541.417 188.317 542.185C187.986 542.937 187.99 543.73 188.329 544.565L187.101 545.064ZM185.599 551.315C185.299 550.576 185.206 549.819 185.321 549.042C185.436 548.266 185.732 547.566 186.208 546.942C186.678 546.302 187.282 545.833 188.021 545.533L188.52 546.761C187.685 547.1 187.105 547.654 186.781 548.421C186.473 549.183 186.488 549.981 186.827 550.816L185.599 551.315ZM191.634 544.065L192.133 545.293L188.52 546.761L188.021 545.533L191.634 544.065ZM195.157 542.634L200.049 554.678L198.82 555.177L193.928 543.133L195.157 542.634ZM203.515 539.239C203.815 539.978 203.908 540.735 203.793 541.512C203.678 542.288 203.386 542.996 202.916 543.636C202.44 544.26 201.832 544.721 201.093 545.021C200.355 545.322 199.597 545.414 198.821 545.299C198.038 545.168 197.335 544.864 196.711 544.388C196.087 543.912 195.625 543.304 195.325 542.566L196.554 542.067C196.893 542.902 197.438 543.485 198.19 543.815C198.958 544.14 199.759 544.132 200.594 543.793C201.429 543.454 202.001 542.904 202.309 542.142C202.634 541.374 202.626 540.573 202.287 539.738L203.515 539.239ZM206.731 537.933L206.975 538.535L205.747 539.034L205.502 538.432L206.731 537.933ZM206.731 537.933L211.623 549.977L210.394 550.476L205.502 538.432L206.731 537.933ZM207.073 538.776L207.318 539.378L206.089 539.877L205.844 539.275L207.073 538.776ZM207.415 539.619L207.66 540.222L206.431 540.721L206.187 540.118L207.415 539.619ZM205.85 535.765L204.621 536.264L203.545 533.614L204.774 533.115L205.85 535.765ZM224.568 544.719L223.34 545.218L216.491 528.356L217.719 527.857L224.568 544.719ZM211.654 540.423C211.354 539.685 211.262 538.927 211.376 538.151C211.491 537.374 211.787 536.674 212.263 536.051C212.733 535.411 213.337 534.941 214.076 534.641C214.815 534.341 215.576 534.256 216.358 534.387C217.135 534.502 217.835 534.798 218.459 535.274C219.082 535.75 219.544 536.358 219.844 537.097L218.616 537.596C218.277 536.761 217.723 536.181 216.955 535.857C216.204 535.526 215.41 535.53 214.575 535.869C213.74 536.209 213.16 536.762 212.836 537.53C212.528 538.291 212.543 539.089 212.883 539.924L211.654 540.423ZM212.883 539.924L214.536 543.995L213.308 544.494L211.654 540.423L212.883 539.924ZM214.981 548.613C214.681 547.875 214.588 547.117 214.703 546.341C214.818 545.565 215.114 544.865 215.59 544.241C216.06 543.601 216.664 543.131 217.403 542.831C218.141 542.531 218.902 542.446 219.685 542.577C220.461 542.692 221.161 542.988 221.785 543.464C222.409 543.941 222.871 544.548 223.171 545.287L221.942 545.786C221.603 544.951 221.05 544.371 220.282 544.047C219.53 543.716 218.737 543.72 217.902 544.06C217.067 544.399 216.487 544.952 216.163 545.72C215.855 546.481 215.87 547.279 216.209 548.114L214.981 548.613ZM237.506 539.464L236.278 539.963L231.386 527.919L232.614 527.42L237.506 539.464ZM224.592 535.168C224.292 534.429 224.2 533.672 224.315 532.896C224.43 532.119 224.725 531.419 225.202 530.795C225.671 530.156 226.276 529.686 227.014 529.386C227.753 529.086 228.514 529.001 229.297 529.132C230.073 529.247 230.773 529.543 231.397 530.019C232.021 530.495 232.483 531.103 232.783 531.841L231.554 532.34C231.215 531.505 230.661 530.926 229.894 530.602C229.142 530.271 228.348 530.275 227.513 530.614C226.678 530.953 226.099 531.507 225.774 532.275C225.466 533.036 225.482 533.834 225.821 534.669L224.592 535.168ZM225.821 534.669L227.474 538.74L226.246 539.239L224.592 535.168L225.821 534.669ZM227.919 543.358C227.619 542.62 227.526 541.862 227.641 541.086C227.756 540.309 228.052 539.609 228.528 538.986C228.998 538.346 229.602 537.876 230.341 537.576C231.08 537.276 231.841 537.191 232.623 537.322C233.4 537.437 234.1 537.733 234.724 538.209C235.347 538.685 235.809 539.293 236.109 540.032L234.881 540.531C234.542 539.696 233.988 539.116 233.22 538.792C232.469 538.461 231.675 538.465 230.84 538.804C230.005 539.144 229.425 539.697 229.101 540.465C228.793 541.226 228.808 542.024 229.148 542.859L227.919 543.358ZM252.859 538.841L251.631 539.34L244.782 522.478L246.01 521.979L252.859 538.841ZM238.043 526.337L242.25 536.696L241.022 537.195L236.814 526.836L238.043 526.337ZM241.022 537.195C240.721 536.456 240.629 535.698 240.744 534.922C240.859 534.146 241.154 533.446 241.631 532.822C242.101 532.182 242.705 531.712 243.444 531.412C244.182 531.112 244.943 531.027 245.726 531.159C246.502 531.273 247.202 531.569 247.826 532.045C248.45 532.522 248.912 533.129 249.212 533.868L247.983 534.367C247.644 533.532 247.09 532.952 246.323 532.628C245.571 532.297 244.778 532.301 243.943 532.641C243.107 532.98 242.528 533.533 242.204 534.301C241.895 535.062 241.911 535.86 242.25 536.696L241.022 537.195ZM241.923 543.283C241.616 542.528 241.545 541.753 241.708 540.957C241.871 540.161 242.239 539.432 242.811 538.769C243.4 538.099 244.136 537.585 245.019 537.226C245.903 536.868 246.781 536.726 247.653 536.802C248.542 536.871 249.322 537.134 249.994 537.591C250.666 538.048 251.155 538.654 251.462 539.408L250.234 539.907C250.031 539.409 249.694 538.994 249.223 538.662C248.774 538.339 248.229 538.149 247.588 538.092C246.947 538.034 246.257 538.155 245.518 538.455C244.78 538.755 244.201 539.149 243.782 539.637C243.363 540.126 243.097 540.645 242.984 541.196C242.893 541.757 242.949 542.286 243.151 542.784L241.923 543.283Z" fill="black"/>
<path d="M256 555.811L284.223 590L312 550.912L305.865 540H292.813L284.223 550.912L274.406 540H260.462L256 555.811Z" fill="#F08BAD" stroke="black" stroke-width="1.02"/>
</svg>
